<mxfile host="Electron" agent="Mozilla/5.0 (Windows NT 10.0; Win64; x64) AppleWebKit/537.36 (KHTML, like Gecko) draw.io/24.7.8 Chrome/128.0.6613.36 Electron/32.0.1 Safari/537.36" version="24.7.8">
  <diagram id="s3uGCmRQ1ByegG5ITnnq" name="Page-1">
    <mxGraphModel dx="1008" dy="568" grid="1" gridSize="10" guides="1" tooltips="1" connect="1" arrows="1" fold="1" page="1" pageScale="1" pageWidth="1100" pageHeight="850" math="0" shadow="0">
      <root>
        <mxCell id="0" />
        <mxCell id="1" parent="0" />
        <mxCell id="ysUJW0Zfu5Nla1DTC5bQ-22" value="" style="rounded=1;whiteSpace=wrap;html=1;fillColor=#f5f5f5;strokeColor=#666666;fontColor=#333333;arcSize=5;" parent="1" vertex="1">
          <mxGeometry x="190" y="234" width="610" height="316" as="geometry" />
        </mxCell>
        <mxCell id="ysUJW0Zfu5Nla1DTC5bQ-15" value="" style="ellipse;shape=cloud;whiteSpace=wrap;html=1;" parent="1" vertex="1">
          <mxGeometry x="827.5" y="358.47" width="245" height="180" as="geometry" />
        </mxCell>
        <mxCell id="ysUJW0Zfu5Nla1DTC5bQ-9" value="" style="rounded=0;whiteSpace=wrap;html=1;dashed=1;" parent="1" vertex="1">
          <mxGeometry x="840" y="184" width="190" height="180" as="geometry" />
        </mxCell>
        <mxCell id="ysUJW0Zfu5Nla1DTC5bQ-6" style="edgeStyle=orthogonalEdgeStyle;rounded=0;orthogonalLoop=1;jettySize=auto;html=1;entryX=0.145;entryY=1;entryDx=0;entryDy=-4.35;entryPerimeter=0;" parent="1" source="ysUJW0Zfu5Nla1DTC5bQ-1" target="ysUJW0Zfu5Nla1DTC5bQ-2" edge="1">
          <mxGeometry relative="1" as="geometry" />
        </mxCell>
        <mxCell id="ysUJW0Zfu5Nla1DTC5bQ-1" value="Data Extractor" style="rounded=1;whiteSpace=wrap;html=1;fillColor=#fff2cc;strokeColor=#d6b656;" parent="1" vertex="1">
          <mxGeometry x="696" y="270" width="90" height="60" as="geometry" />
        </mxCell>
        <mxCell id="ysUJW0Zfu5Nla1DTC5bQ-2" value="DB" style="shape=cylinder3;whiteSpace=wrap;html=1;boundedLbl=1;backgroundOutline=1;size=15;fillColor=#dae8fc;strokeColor=#6c8ebf;" parent="1" vertex="1">
          <mxGeometry x="890" y="224" width="60" height="80" as="geometry" />
        </mxCell>
        <mxCell id="ysUJW0Zfu5Nla1DTC5bQ-3" value="DB" style="shape=cylinder3;whiteSpace=wrap;html=1;boundedLbl=1;backgroundOutline=1;size=15;fillColor=#ffe6cc;strokeColor=#d79b00;" parent="1" vertex="1">
          <mxGeometry x="900" y="234" width="60" height="80" as="geometry" />
        </mxCell>
        <mxCell id="ysUJW0Zfu5Nla1DTC5bQ-4" value="DB" style="shape=cylinder3;whiteSpace=wrap;html=1;boundedLbl=1;backgroundOutline=1;size=15;fillColor=#e1d5e7;strokeColor=#9673a6;" parent="1" vertex="1">
          <mxGeometry x="910" y="244" width="60" height="80" as="geometry" />
        </mxCell>
        <mxCell id="ysUJW0Zfu5Nla1DTC5bQ-5" value="DB" style="shape=cylinder3;whiteSpace=wrap;html=1;boundedLbl=1;backgroundOutline=1;size=15;fillColor=#fff2cc;strokeColor=#d6b656;" parent="1" vertex="1">
          <mxGeometry x="920" y="254" width="60" height="80" as="geometry" />
        </mxCell>
        <mxCell id="ysUJW0Zfu5Nla1DTC5bQ-8" style="edgeStyle=orthogonalEdgeStyle;rounded=0;orthogonalLoop=1;jettySize=auto;html=1;entryX=0;entryY=0.5;entryDx=0;entryDy=0;" parent="1" source="ysUJW0Zfu5Nla1DTC5bQ-7" target="ysUJW0Zfu5Nla1DTC5bQ-1" edge="1">
          <mxGeometry relative="1" as="geometry" />
        </mxCell>
        <mxCell id="ysUJW0Zfu5Nla1DTC5bQ-13" value="Periodic Data pull" style="edgeLabel;html=1;align=center;verticalAlign=middle;resizable=0;points=[];" parent="ysUJW0Zfu5Nla1DTC5bQ-8" vertex="1" connectable="0">
          <mxGeometry x="-0.1686" y="2" relative="1" as="geometry">
            <mxPoint as="offset" />
          </mxGeometry>
        </mxCell>
        <mxCell id="ysUJW0Zfu5Nla1DTC5bQ-12" style="edgeStyle=orthogonalEdgeStyle;rounded=0;orthogonalLoop=1;jettySize=auto;html=1;entryX=0;entryY=0;entryDx=0;entryDy=15;entryPerimeter=0;" parent="1" source="ysUJW0Zfu5Nla1DTC5bQ-7" target="ysUJW0Zfu5Nla1DTC5bQ-11" edge="1">
          <mxGeometry relative="1" as="geometry">
            <Array as="points">
              <mxPoint x="490" y="431" />
            </Array>
          </mxGeometry>
        </mxCell>
        <mxCell id="ysUJW0Zfu5Nla1DTC5bQ-14" value="Writes/updates" style="edgeLabel;html=1;align=center;verticalAlign=middle;resizable=0;points=[];" parent="ysUJW0Zfu5Nla1DTC5bQ-12" vertex="1" connectable="0">
          <mxGeometry x="-0.2395" relative="1" as="geometry">
            <mxPoint as="offset" />
          </mxGeometry>
        </mxCell>
        <mxCell id="ysUJW0Zfu5Nla1DTC5bQ-27" style="edgeStyle=orthogonalEdgeStyle;rounded=0;orthogonalLoop=1;jettySize=auto;html=1;entryX=0.75;entryY=0;entryDx=0;entryDy=0;exitX=0;exitY=0.75;exitDx=0;exitDy=0;" parent="1" source="ysUJW0Zfu5Nla1DTC5bQ-7" target="ysUJW0Zfu5Nla1DTC5bQ-18" edge="1">
          <mxGeometry relative="1" as="geometry" />
        </mxCell>
        <mxCell id="ysUJW0Zfu5Nla1DTC5bQ-29" value="Query" style="edgeLabel;html=1;align=center;verticalAlign=middle;resizable=0;points=[];" parent="ysUJW0Zfu5Nla1DTC5bQ-27" vertex="1" connectable="0">
          <mxGeometry x="0.0062" y="1" relative="1" as="geometry">
            <mxPoint as="offset" />
          </mxGeometry>
        </mxCell>
        <mxCell id="ysUJW0Zfu5Nla1DTC5bQ-31" style="edgeStyle=orthogonalEdgeStyle;rounded=0;orthogonalLoop=1;jettySize=auto;html=1;exitX=0.25;exitY=0;exitDx=0;exitDy=0;entryX=0.25;entryY=1;entryDx=0;entryDy=0;" parent="1" source="ysUJW0Zfu5Nla1DTC5bQ-7" target="ysUJW0Zfu5Nla1DTC5bQ-20" edge="1">
          <mxGeometry relative="1" as="geometry" />
        </mxCell>
        <mxCell id="ysUJW0Zfu5Nla1DTC5bQ-32" value="Results" style="edgeLabel;html=1;align=center;verticalAlign=middle;resizable=0;points=[];" parent="ysUJW0Zfu5Nla1DTC5bQ-31" vertex="1" connectable="0">
          <mxGeometry x="0.3333" relative="1" as="geometry">
            <mxPoint as="offset" />
          </mxGeometry>
        </mxCell>
        <mxCell id="ysUJW0Zfu5Nla1DTC5bQ-7" value="&amp;lt;&amp;lt;Data Handler&amp;gt;&amp;gt;&lt;br&gt;AFTAC" style="rounded=1;whiteSpace=wrap;html=1;fillColor=#FF8000;strokeColor=default;glass=0;strokeWidth=3;shadow=0;gradientDirection=radial;gradientColor=#FFF4C3;" parent="1" vertex="1">
          <mxGeometry x="430" y="270" width="120" height="60" as="geometry" />
        </mxCell>
        <mxCell id="ysUJW0Zfu5Nla1DTC5bQ-10" value="External Data" style="text;html=1;strokeColor=none;fillColor=none;align=center;verticalAlign=middle;whiteSpace=wrap;rounded=0;dashed=1;" parent="1" vertex="1">
          <mxGeometry x="890" y="184" width="90" height="20" as="geometry" />
        </mxCell>
        <mxCell id="ysUJW0Zfu5Nla1DTC5bQ-11" value="MetaData" style="shape=cylinder3;whiteSpace=wrap;html=1;boundedLbl=1;backgroundOutline=1;size=15;fillColor=#33F8FF;strokeColor=default;gradientColor=#ffffff;gradientDirection=north;" parent="1" vertex="1">
          <mxGeometry x="905" y="415.99999999999994" width="90" height="64.95" as="geometry" />
        </mxCell>
        <mxCell id="ysUJW0Zfu5Nla1DTC5bQ-17" style="edgeStyle=orthogonalEdgeStyle;rounded=0;orthogonalLoop=1;jettySize=auto;html=1;entryX=0;entryY=0;entryDx=0;entryDy=41.212500000000006;entryPerimeter=0;" parent="1" source="ysUJW0Zfu5Nla1DTC5bQ-16" target="ysUJW0Zfu5Nla1DTC5bQ-11" edge="1">
          <mxGeometry relative="1" as="geometry" />
        </mxCell>
        <mxCell id="ysUJW0Zfu5Nla1DTC5bQ-39" value="&lt;font&gt;&lt;font style=&quot;font-size: 12px&quot;&gt;Uses&lt;/font&gt;&lt;br&gt;&lt;/font&gt;" style="edgeLabel;html=1;align=center;verticalAlign=middle;resizable=0;points=[];fontSize=14;" parent="ysUJW0Zfu5Nla1DTC5bQ-17" vertex="1" connectable="0">
          <mxGeometry x="-0.3424" y="1" relative="1" as="geometry">
            <mxPoint as="offset" />
          </mxGeometry>
        </mxCell>
        <mxCell id="ysUJW0Zfu5Nla1DTC5bQ-19" value="" style="group;strokeColor=#6c8ebf;strokeWidth=1;dashed=1;dashPattern=1 2;fillColor=#dae8fc;" parent="1" vertex="1" connectable="0">
          <mxGeometry x="210" y="372.93" width="210" height="149.10000000000002" as="geometry" />
        </mxCell>
        <mxCell id="ysUJW0Zfu5Nla1DTC5bQ-16" value="" style="sketch=0;html=1;aspect=fixed;strokeColor=none;shadow=0;align=center;verticalAlign=top;fillColor=#3B8DF1;shape=mxgraph.gcp2.gear_arrow;rotation=-180;" parent="ysUJW0Zfu5Nla1DTC5bQ-19" vertex="1">
          <mxGeometry x="1.4210854715202004e-14" y="21" width="210" height="128.1" as="geometry" />
        </mxCell>
        <mxCell id="ysUJW0Zfu5Nla1DTC5bQ-18" value="&lt;span style=&quot;background-color: rgb(255 , 229 , 153)&quot;&gt;Deep Learning Model&lt;/span&gt;" style="text;html=1;strokeColor=none;fillColor=none;align=center;verticalAlign=middle;whiteSpace=wrap;rounded=0;" parent="ysUJW0Zfu5Nla1DTC5bQ-19" vertex="1">
          <mxGeometry x="40.000000000000014" width="130" height="20" as="geometry" />
        </mxCell>
        <mxCell id="ysUJW0Zfu5Nla1DTC5bQ-21" style="edgeStyle=orthogonalEdgeStyle;rounded=0;orthogonalLoop=1;jettySize=auto;html=1;exitX=0.75;exitY=1;exitDx=0;exitDy=0;entryX=0.75;entryY=0;entryDx=0;entryDy=0;" parent="1" source="ysUJW0Zfu5Nla1DTC5bQ-20" target="ysUJW0Zfu5Nla1DTC5bQ-7" edge="1">
          <mxGeometry relative="1" as="geometry">
            <mxPoint x="490" y="110" as="sourcePoint" />
            <mxPoint x="490" y="310" as="targetPoint" />
          </mxGeometry>
        </mxCell>
        <mxCell id="ysUJW0Zfu5Nla1DTC5bQ-33" value="Query" style="edgeLabel;html=1;align=center;verticalAlign=middle;resizable=0;points=[];" parent="ysUJW0Zfu5Nla1DTC5bQ-21" vertex="1" connectable="0">
          <mxGeometry x="-0.6667" y="-2" relative="1" as="geometry">
            <mxPoint y="94" as="offset" />
          </mxGeometry>
        </mxCell>
        <mxCell id="ysUJW0Zfu5Nla1DTC5bQ-20" value="&amp;lt;&amp;lt;Application&amp;gt;&amp;gt;&lt;br&gt;&lt;span style=&quot;font-family: &amp;#34;helvetica&amp;#34; ; font-size: 14px&quot;&gt;AI Driven R&amp;amp;D&lt;/span&gt;&lt;br&gt;&amp;lt;Python&amp;gt;" style="rounded=1;whiteSpace=wrap;html=1;fillColor=#d5e8d4;strokeColor=#82b366;" parent="1" vertex="1">
          <mxGeometry x="430" y="30" width="120" height="60" as="geometry" />
        </mxCell>
        <mxCell id="ysUJW0Zfu5Nla1DTC5bQ-23" value="&lt;span style=&quot;color: rgb(0, 0, 0); font-family: helvetica; font-size: 14px; font-style: normal; font-weight: 400; letter-spacing: normal; text-align: center; text-indent: 0px; text-transform: none; word-spacing: 0px; background-color: rgb(248, 249, 250); display: inline; float: none;&quot;&gt;AI Driven R&amp;amp;D Module&lt;/span&gt;" style="text;html=1;strokeColor=none;fillColor=none;align=center;verticalAlign=middle;whiteSpace=wrap;rounded=0;fontSize=14;" parent="1" vertex="1">
          <mxGeometry x="200" y="234" width="170" height="20" as="geometry" />
        </mxCell>
        <mxCell id="ysUJW0Zfu5Nla1DTC5bQ-25" value="&lt;div&gt;Machine Learning&lt;/div&gt;ChineseHistory&lt;br&gt;Particle Accelerator&lt;br&gt;..&lt;br&gt;.." style="shape=note;whiteSpace=wrap;html=1;backgroundOutline=1;darkOpacity=0.05;fillColor=#f5f5f5;strokeColor=#666666;fontColor=#333333;" parent="1" vertex="1">
          <mxGeometry x="580" y="60" width="120" height="130" as="geometry" />
        </mxCell>
        <mxCell id="ysUJW0Zfu5Nla1DTC5bQ-26" value="" style="endArrow=classic;html=1;exitX=0.001;exitY=0.8;exitDx=0;exitDy=0;exitPerimeter=0;" parent="1" source="ysUJW0Zfu5Nla1DTC5bQ-25" edge="1">
          <mxGeometry width="50" height="50" relative="1" as="geometry">
            <mxPoint x="460" y="180" as="sourcePoint" />
            <mxPoint x="520" y="200" as="targetPoint" />
          </mxGeometry>
        </mxCell>
        <mxCell id="ysUJW0Zfu5Nla1DTC5bQ-28" style="edgeStyle=orthogonalEdgeStyle;rounded=0;orthogonalLoop=1;jettySize=auto;html=1;exitX=0.25;exitY=0;exitDx=0;exitDy=0;entryX=0;entryY=0.25;entryDx=0;entryDy=0;" parent="1" source="ysUJW0Zfu5Nla1DTC5bQ-18" target="ysUJW0Zfu5Nla1DTC5bQ-7" edge="1">
          <mxGeometry relative="1" as="geometry" />
        </mxCell>
        <mxCell id="ysUJW0Zfu5Nla1DTC5bQ-30" value="Results" style="edgeLabel;html=1;align=center;verticalAlign=middle;resizable=0;points=[];" parent="ysUJW0Zfu5Nla1DTC5bQ-28" vertex="1" connectable="0">
          <mxGeometry x="0.2478" y="-1" relative="1" as="geometry">
            <mxPoint as="offset" />
          </mxGeometry>
        </mxCell>
      </root>
    </mxGraphModel>
  </diagram>
</mxfile>
